# The Great Editor v0.0.1
mtllib floor_4.mtl
o floor_4
v 11.222227887639438 -1.6959665681564475 0
v 11.222227887639438 -1.6959665681564475 -0.1
v 11.261930801771078 -6.396629063202053 0
v 11.261930801771078 -6.396629063202053 -0.1
v 11.262168662464829 -7.811483934795875 0
v 11.262168662464829 -7.811483934795875 -0.1
v 12.80994801841551 -7.848352342327005 0
v 12.80994801841551 -7.848352342327005 -0.1
v 14.333148436012102 -7.910017727181492 0
v 14.333148436012102 -7.910017727181492 -0.1
v 14.343535019639152 -7.46946007890897 0
v 14.343535019639152 -7.46946007890897 -0.1
v 14.920882388541958 -7.505535617460936 0
v 14.920882388541958 -7.505535617460936 -0.1
v 14.920882388541958 -7.848352342327005 0
v 14.920882388541958 -7.848352342327005 -0.1
v 19.954648963458872 -7.848352342327005 0
v 19.954648963458872 -7.848352342327005 -0.1
v 19.954648963458872 -7.5235932084613975 0
v 19.954648963458872 -7.5235932084613975 -0.1
v 20.297445866600462 -7.505535617460936 0
v 20.297445866600462 -7.505535617460936 -0.1
v 20.33352140515243 -2.3093894756112174 0
v 20.33352140515243 -2.3093894756112174 -0.1
v 20.06289540083925 -2.327447066611679 0
v 20.06289540083925 -2.327447066611679 -0.1
v 20.06289540083925 -1.7681374669848577 0
v 20.06289540083925 -1.7681374669848577 -0.1
v 14.993053287370367 -1.7140043374324303 0
v 14.993053287370367 -1.7140043374324303 -0.1
v 14.993053287370367 -1.9485548031936444 0
v 14.993053287370367 -1.9485548031936444 -0.1
v 14.433743687743545 -1.98463034174561 0
v 14.433743687743545 -1.98463034174561 -0.1
v 14.361572788915137 -1.6779287988804645 0
v 14.361572788915137 -1.6779287988804645 -0.1
vt 11.222227887639438 -1.6959665681564475 0
vt 11.261930801771078 -6.396629063202053 0
vt 11.262168662464829 -7.811483934795875 0
vt 12.80994801841551 -7.848352342327005 0
vt 14.333148436012102 -7.910017727181492 0
vt 14.343535019639152 -7.46946007890897 0
vt 14.920882388541958 -7.505535617460936 0
vt 14.920882388541958 -7.848352342327005 0
vt 19.954648963458872 -7.848352342327005 0
vt 19.954648963458872 -7.5235932084613975 0
vt 20.297445866600462 -7.505535617460936 0
vt 20.33352140515243 -2.3093894756112174 0
vt 20.06289540083925 -2.327447066611679 0
vt 20.06289540083925 -1.7681374669848577 0
vt 14.993053287370367 -1.7140043374324303 0
vt 14.993053287370367 -1.9485548031936444 0
vt 14.433743687743545 -1.98463034174561 0
vt 14.361572788915137 -1.6779287988804645 0
vn 0 0 1
vn 0 0 -1
usemtl floor_4
s off
f 1/1/1 3/2/1 33/17/1
f 34/17/2 4/2/2 2/1/2
f 1/1/1 33/17/1 35/18/1
f 36/18/2 34/17/2 2/1/2
f 29/15/1 31/16/1 27/14/1
f 28/14/2 32/16/2 30/15/2
f 27/14/1 31/16/1 25/13/1
f 26/13/2 32/16/2 28/14/2
f 23/12/1 25/13/1 21/11/1
f 22/11/2 26/13/2 24/12/2
f 9/5/1 11/6/1 7/4/1
f 8/4/2 12/6/2 10/5/2
f 7/4/1 11/6/1 3/2/1
f 4/2/2 12/6/2 8/4/2
f 7/4/1 3/2/1 5/3/1
f 6/3/2 4/2/2 8/4/2
f 3/2/1 11/6/1 33/17/1
f 34/17/2 12/6/2 4/2/2
f 33/17/1 11/6/1 13/7/1
f 14/7/2 12/6/2 34/17/2
f 33/17/1 13/7/1 31/16/1
f 32/16/2 14/7/2 34/17/2
f 31/16/1 13/7/1 25/13/1
f 26/13/2 14/7/2 32/16/2
f 25/13/1 13/7/1 19/10/1
f 20/10/2 14/7/2 26/13/2
f 25/13/1 19/10/1 21/11/1
f 22/11/2 20/10/2 26/13/2
f 17/9/1 19/10/1 15/8/1
f 16/8/2 20/10/2 18/9/2
f 15/8/1 19/10/1 13/7/1
f 14/7/2 20/10/2 16/8/2
