# The Great Editor v0.0.1
mtllib floor_6.mtl
o floor_6
v 7.920523241155416 -7.361213641528594 0
v 7.920523241155416 -7.361213641528594 -0.1
v 7.325118281252149 -7.397289180080559 0
v 7.325118281252149 -7.397289180080559 -0.1
v 7.397289180080559 -7.7942192127745775 0
v 7.397289180080559 -7.7942192127745775 -0.1
v 2.255276167783269 -7.667915184393739 0
v 2.255276167783269 -7.667915184393739 -0.1
v 2.255276167783269 -7.307080511976166 0
v 2.255276167783269 -7.307080511976166 -0.1
v 1.7861752362608405 -7.289042742700184 0
v 1.7861752362608405 -7.289042742700184 -0.1
v 1.8944216736412167 -2.1650674996788757 0
v 1.8944216736412167 -2.1650674996788757 -0.1
v 2.110934370126448 -2.1470099086784136 0
v 2.110934370126448 -2.1470099086784136 -0.1
v 2.110934370126448 -1.8583461350892512 0
v 2.110934370126448 -1.8583461350892512 -0.1
v 2.327447066611679 -1.8042130055368235 0
v 2.327447066611679 -1.8042130055368235 -0.1
v 2.327447066611679 -1.5696625397756092 0
v 2.327447066611679 -1.5696625397756092 -0.1
v 7.46946007890897 -1.623795669328037 0
v 7.46946007890897 -1.623795669328037 -0.1
v 7.505535617460936 -1.876383904365234 0
v 7.505535617460936 -1.876383904365234 -0.1
v 8.010731909259809 -1.876383904365234 0
v 8.010731909259809 -1.876383904365234 -0.1
vt 7.920523241155416 -7.361213641528594 0
vt 7.325118281252149 -7.397289180080559 0
vt 7.397289180080559 -7.7942192127745775 0
vt 2.255276167783269 -7.667915184393739 0
vt 2.255276167783269 -7.307080511976166 0
vt 1.7861752362608405 -7.289042742700184 0
vt 1.8944216736412167 -2.1650674996788757 0
vt 2.110934370126448 -2.1470099086784136 0
vt 2.110934370126448 -1.8583461350892512 0
vt 2.327447066611679 -1.8042130055368235 0
vt 2.327447066611679 -1.5696625397756092 0
vt 7.46946007890897 -1.623795669328037 0
vt 7.505535617460936 -1.876383904365234 0
vt 8.010731909259809 -1.876383904365234 0
vn 0 0 1
vn 0 0 -1
usemtl floor_6
s off
f 13/7/1 11/6/1 9/5/1
f 10/5/2 12/6/2 14/7/2
f 13/7/1 9/5/1 15/8/1
f 16/8/2 10/5/2 14/7/2
f 17/9/1 15/8/1 19/10/1
f 20/10/2 16/8/2 18/9/2
f 21/11/1 19/10/1 23/12/1
f 24/12/2 20/10/2 22/11/2
f 23/12/1 19/10/1 25/13/1
f 26/13/2 20/10/2 24/12/2
f 27/14/1 25/13/1 1/1/1
f 2/1/2 26/13/2 28/14/2
f 5/3/1 3/2/1 7/4/1
f 8/4/2 4/2/2 6/3/2
f 7/4/1 3/2/1 9/5/1
f 10/5/2 4/2/2 8/4/2
f 9/5/1 3/2/1 15/8/1
f 16/8/2 4/2/2 10/5/2
f 15/8/1 3/2/1 25/13/1
f 26/13/2 4/2/2 16/8/2
f 15/8/1 25/13/1 19/10/1
f 20/10/2 26/13/2 16/8/2
f 25/13/1 3/2/1 1/1/1
f 2/1/2 4/2/2 26/13/2
