# The Great Editor v0.0.1
mtllib floor_2.mtl
o floor_2
v 16.075577126347568 -13.315124488489904 0
v 16.075577126347568 -13.315124488489904 -0.1
v 16.418374029489158 -13.297086719213919 0
v 16.418374029489158 -13.297086719213919 -0.1
v 16.490544928317565 -13.44142851687074 0
v 16.490544928317565 -13.44142851687074 -0.1
v 19.88247806463046 -13.459466286146723 0
v 19.88247806463046 -13.459466286146723 -0.1
v 19.864440295354477 -13.730092290459904 0
v 19.864440295354477 -13.730092290459904 -0.1
v 20.261370328048496 -13.730092290459904 0
v 20.261370328048496 -13.730092290459904 -0.1
v 20.261370328048496 -19.106655768518408 0
v 20.261370328048496 -19.106655768518408 -0.1
v 19.864440295354477 -19.17882666734682 0
v 19.864440295354477 -19.17882666734682 -0.1
v 19.864440295354477 -19.629889829593264 0
v 19.864440295354477 -19.629889829593264 -0.1
v 19.503585801212427 -19.64792759886925 0
v 19.503585801212427 -19.64792759886925 -0.1
v 19.539681161488872 -21.65061553161532 0
v 19.539681161488872 -21.65061553161532 -0.1
v 17.42874679136242 -21.614520171338874 0
v 17.42874679136242 -21.614520171338874 -0.1
v 17.427260162026492 -20.208168819546586 0
v 17.427260162026492 -20.208168819546586 -0.1
v 17.42874679136242 -19.05254246069046 0
v 17.42874679136242 -19.05254246069046 -0.1
v 16.075577126347568 -19.17882666734682 0
v 16.075577126347568 -19.17882666734682 -0.1
vt 16.075577126347568 -13.315124488489904 0
vt 16.418374029489158 -13.297086719213919 0
vt 16.490544928317565 -13.44142851687074 0
vt 19.88247806463046 -13.459466286146723 0
vt 19.864440295354477 -13.730092290459904 0
vt 20.261370328048496 -13.730092290459904 0
vt 20.261370328048496 -19.106655768518408 0
vt 19.864440295354477 -19.17882666734682 0
vt 19.864440295354477 -19.629889829593264 0
vt 19.503585801212427 -19.64792759886925 0
vt 19.539681161488872 -21.65061553161532 0
vt 17.42874679136242 -21.614520171338874 0
vt 17.427260162026492 -20.208168819546586 0
vt 17.42874679136242 -19.05254246069046 0
vt 16.075577126347568 -19.17882666734682 0
vn 0 0 1
vn 0 0 -1
usemtl floor_2
s off
f 1/1/1 29/15/1 5/3/1
f 6/3/2 30/15/2 2/1/2
f 1/1/1 5/3/1 3/2/1
f 4/2/2 6/3/2 2/1/2
f 7/4/1 5/3/1 9/5/1
f 10/5/2 6/3/2 8/4/2
f 11/6/1 9/5/1 13/7/1
f 14/7/2 10/5/2 12/6/2
f 21/11/1 19/10/1 25/13/1
f 26/13/2 20/10/2 22/11/2
f 21/11/1 25/13/1 23/12/1
f 24/12/2 26/13/2 22/11/2
f 29/15/1 27/14/1 5/3/1
f 6/3/2 28/14/2 30/15/2
f 5/3/1 27/14/1 9/5/1
f 10/5/2 28/14/2 6/3/2
f 9/5/1 27/14/1 15/8/1
f 16/8/2 28/14/2 10/5/2
f 9/5/1 15/8/1 13/7/1
f 14/7/2 16/8/2 10/5/2
f 17/9/1 15/8/1 19/10/1
f 20/10/2 16/8/2 18/9/2
f 19/10/1 15/8/1 27/14/1
f 28/14/2 16/8/2 20/10/2
f 19/10/1 27/14/1 25/13/1
f 26/13/2 28/14/2 20/10/2
