# The Great Editor v0.0.1
mtllib floor_12.mtl
o floor_12
v 4.527856701036794 -19.168559014066645 0
v 4.527856701036794 -19.168559014066645 -0.1
v 7.325118281252149 -19.142751128794853 0
v 7.325118281252149 -19.142751128794853 -0.1
v 7.253958290372172 -22.15743720482148 0
v 7.253958290372172 -22.15743720482148 -0.1
v 4.478579893981746 -22.173849592690175 0
v 4.478579893981746 -22.173849592690175 -0.1
vt 4.527856701036794 -19.168559014066645 0
vt 7.325118281252149 -19.142751128794853 0
vt 7.253958290372172 -22.15743720482148 0
vt 4.478579893981746 -22.173849592690175 0
vn 0 0 1
vn 0 0 -1
usemtl floor_12
s off
f 1/1/1 7/4/1 5/3/1
f 6/3/2 8/4/2 2/1/2
f 1/1/1 5/3/1 3/2/1
f 4/2/2 6/3/2 2/1/2
