# The Great Editor v0.0.1
mtllib floor_8.mtl
o floor_8
v 2.255276167783269 -7.667915184393739 0
v 2.255276167783269 -7.667915184393739 -0.1
v 7.397289180080559 -7.7942192127745775 0
v 7.397289180080559 -7.7942192127745775 -0.1
v 7.379251410804577 -9.309768444722238 0
v 7.379251410804577 -9.309768444722238 -0.1
v 7.352511904482268 -10.465394803578365 0
v 7.352511904482268 -10.465394803578365 -0.1
v 7.307080511976166 -11.980012414475508 0
v 7.307080511976166 -11.980012414475508 -0.1
v 8.100940577364202 -12.016087953027473 0
v 8.100940577364202 -12.016087953027473 -0.1
v 8.028769678535792 -13.206878051109527 0
v 8.028769678535792 -13.206878051109527 -0.1
v 7.848352342327005 -13.22491582038551 0
v 7.848352342327005 -13.22491582038551 -0.1
v 7.848352342327005 -13.675959160907476 0
v 7.848352342327005 -13.675959160907476 -0.1
v 7.310727709280322 -13.674056275357483 0
v 7.310727709280322 -13.674056275357483 -0.1
v 7.325118281252149 -16.526640288594013 0
v 7.325118281252149 -16.526640288594013 -0.1
v 7.325118281252149 -17.591126358295227 0
v 7.325118281252149 -17.591126358295227 -0.1
v 7.325118281252149 -19.142751128794853 0
v 7.325118281252149 -19.142751128794853 -0.1
v 1.8719834815308733 -19.151532152739094 0
v 1.8719834815308733 -19.151532152739094 -0.1
vt 2.255276167783269 -7.667915184393739 0
vt 7.397289180080559 -7.7942192127745775 0
vt 7.379251410804577 -9.309768444722238 0
vt 7.352511904482268 -10.465394803578365 0
vt 7.307080511976166 -11.980012414475508 0
vt 8.100940577364202 -12.016087953027473 0
vt 8.028769678535792 -13.206878051109527 0
vt 7.848352342327005 -13.22491582038551 0
vt 7.848352342327005 -13.675959160907476 0
vt 7.310727709280322 -13.674056275357483 0
vt 7.325118281252149 -16.526640288594013 0
vt 7.325118281252149 -17.591126358295227 0
vt 7.325118281252149 -19.142751128794853 0
vt 1.8719834815308733 -19.151532152739094 0
vn 0 0 1
vn 0 0 -1
usemtl floor_8
s off
f 1/1/1 27/14/1 19/10/1
f 20/10/2 28/14/2 2/1/2
f 1/1/1 19/10/1 9/5/1
f 10/5/2 20/10/2 2/1/2
f 1/1/1 9/5/1 7/4/1
f 8/4/2 10/5/2 2/1/2
f 1/1/1 7/4/1 5/3/1
f 6/3/2 8/4/2 2/1/2
f 1/1/1 5/3/1 3/2/1
f 4/2/2 6/3/2 2/1/2
f 25/13/1 23/12/1 27/14/1
f 28/14/2 24/12/2 26/13/2
f 27/14/1 23/12/1 21/11/1
f 22/11/2 24/12/2 28/14/2
f 27/14/1 21/11/1 19/10/1
f 20/10/2 22/11/2 28/14/2
f 19/10/1 17/9/1 15/8/1
f 16/8/2 18/9/2 20/10/2
f 19/10/1 15/8/1 9/5/1
f 10/5/2 16/8/2 20/10/2
f 9/5/1 15/8/1 11/6/1
f 12/6/2 16/8/2 10/5/2
f 11/6/1 15/8/1 13/7/1
f 14/7/2 16/8/2 12/6/2
