# The Great Editor v0.0.1
mtllib floor_1.mtl
o floor_1
v 7.325118281252149 -19.142751128794853 0
v 7.325118281252149 -19.142751128794853 -0.1
v 7.325118281252149 -17.591126358295227 0
v 7.325118281252149 -17.591126358295227 -0.1
v 7.325118281252149 -16.526640288594013 0
v 7.325118281252149 -16.526640288594013 -0.1
v 7.310727709280322 -13.674056275357483 0
v 7.310727709280322 -13.674056275357483 -0.1
v 7.848352342327005 -13.675959160907476 0
v 7.848352342327005 -13.675959160907476 -0.1
v 7.848352342327005 -13.22491582038551 0
v 7.848352342327005 -13.22491582038551 -0.1
v 12.683643990034671 -13.297086719213919 0
v 12.683643990034671 -13.297086719213919 -0.1
v 14.234614643626486 -13.296551532652986 0
v 14.234614643626486 -13.296551532652986 -0.1
v 14.307439659362709 -13.675959160907476 0
v 14.307439659362709 -13.675959160907476 -0.1
v 14.884787028265512 -13.675959160907476 0
v 14.884787028265512 -13.675959160907476 -0.1
v 14.902844619265975 -13.333162257765887 0
v 14.902844619265975 -13.333162257765887 -0.1
v 16.075577126347568 -13.315124488489904 0
v 16.075577126347568 -13.315124488489904 -0.1
v 16.075577126347568 -15.696684862929532 0
v 16.075577126347568 -15.696684862929532 -0.1
v 16.084913158577223 -16.816235683233693 0
v 16.084913158577223 -16.816235683233693 -0.1
v 16.075577126347568 -19.17882666734682 0
v 16.075577126347568 -19.17882666734682 -0.1
vt 7.325118281252149 -19.142751128794853 0
vt 7.325118281252149 -17.591126358295227 0
vt 7.325118281252149 -16.526640288594013 0
vt 7.310727709280322 -13.674056275357483 0
vt 7.848352342327005 -13.675959160907476 0
vt 7.848352342327005 -13.22491582038551 0
vt 12.683643990034671 -13.297086719213919 0
vt 14.234614643626486 -13.296551532652986 0
vt 14.307439659362709 -13.675959160907476 0
vt 14.884787028265512 -13.675959160907476 0
vt 14.902844619265975 -13.333162257765887 0
vt 16.075577126347568 -13.315124488489904 0
vt 16.075577126347568 -15.696684862929532 0
vt 16.084913158577223 -16.816235683233693 0
vt 16.075577126347568 -19.17882666734682 0
vn 0 0 1
vn 0 0 -1
usemtl floor_1
s off
f 7/4/1 5/3/1 9/5/1
f 10/5/2 6/3/2 8/4/2
f 11/6/1 9/5/1 13/7/1
f 14/7/2 10/5/2 12/6/2
f 13/7/1 9/5/1 5/3/1
f 6/3/2 10/5/2 14/7/2
f 13/7/1 5/3/1 3/2/1
f 4/2/2 6/3/2 14/7/2
f 13/7/1 3/2/1 27/14/1
f 28/14/2 4/2/2 14/7/2
f 13/7/1 27/14/1 17/9/1
f 18/9/2 28/14/2 14/7/2
f 13/7/1 17/9/1 15/8/1
f 16/8/2 18/9/2 14/7/2
f 23/12/1 21/11/1 19/10/1
f 20/10/2 22/11/2 24/12/2
f 23/12/1 19/10/1 25/13/1
f 26/13/2 20/10/2 24/12/2
f 29/15/1 27/14/1 3/2/1
f 4/2/2 28/14/2 30/15/2
f 29/15/1 3/2/1 1/1/1
f 2/1/2 4/2/2 30/15/2
f 27/14/1 25/13/1 17/9/1
f 18/9/2 26/13/2 28/14/2
f 17/9/1 25/13/1 19/10/1
f 20/10/2 26/13/2 18/9/2
