# The Great Editor v0.0.1
mtllib floor_11.mtl
o floor_11
v 16.075577126347568 -19.17882666734682 0
v 16.075577126347568 -19.17882666734682 -0.1
v 17.42874679136242 -19.05254246069046 0
v 17.42874679136242 -19.05254246069046 -0.1
v 17.427260162026492 -20.208168819546586 0
v 17.427260162026492 -20.208168819546586 -0.1
v 17.42874679136242 -21.614520171338874 0
v 17.42874679136242 -21.614520171338874 -0.1
v 16.075577126347568 -21.599079047969653 0
v 16.075577126347568 -21.599079047969653 -0.1
vt 16.075577126347568 -19.17882666734682 0
vt 17.42874679136242 -19.05254246069046 0
vt 17.427260162026492 -20.208168819546586 0
vt 17.42874679136242 -21.614520171338874 0
vt 16.075577126347568 -21.599079047969653 0
vn 0 0 1
vn 0 0 -1
usemtl floor_11
s off
f 1/1/1 9/5/1 5/3/1
f 6/3/2 10/5/2 2/1/2
f 1/1/1 5/3/1 3/2/1
f 4/2/2 6/3/2 2/1/2
f 7/4/1 5/3/1 9/5/1
f 10/5/2 6/3/2 8/4/2
